<svg xmlns="http://www.w3.org/2000/svg" xmlns:xlink="http://www.w3.org/1999/xlink" contentStyleType="text/css" height="384.375px" preserveAspectRatio="none" style="width:1053px;height:384px;" version="1.1" viewBox="0 0 1053 384" width="1053.125px" zoomAndPan="magnify"><defs/><g><!--entity a--><g id="elem_a"><rect fill="#FFFFFF" height="61.0397" rx="3.9063" ry="3.9063" style="stroke:#000000;stroke-width:1.5625;" width="200.5249" x="385.9375" y="163.2813"/><text fill="#000000" font-family="Open Sans" font-size="21.875" lengthAdjust="spacing" textLength="169.2749" x="401.5625" y="202.2873">SimpleAlgorithm</text></g><!--entity p--><g id="elem_p"><rect fill="#FFFFFF" height="55.7499" rx="3.9063" ry="3.9063" style="stroke:#000000;stroke-width:1.5625;" width="162.4994" x="10.9375" y="10.9375"/><text fill="#000000" font-family="PT Mono" font-size="21.875" lengthAdjust="spacing" textLength="131.2494" x="26.5625" y="45.9218">Population</text></g><!--entity tp--><g id="elem_tp"><rect fill="#FFFFFF" height="61.0397" rx="3.9063" ry="3.9063" style="stroke:#000000;stroke-width:1.5625;" width="258.32" x="785.9375" y="163.2813"/><text fill="#000000" font-family="Open Sans" font-size="21.875" lengthAdjust="spacing" textLength="90.1382" x="801.5625" y="202.2873">Terminal</text><text fill="#000000" font-family="Open Sans" font-size="21.875" lengthAdjust="spacing" textLength="5.6824" x="891.7007" y="202.2873">&#160;</text><text fill="#000000" font-family="PT Mono" font-size="21.875" lengthAdjust="spacing" textLength="131.2494" x="897.3831" y="203.5554">Population</text></g><!--entity s--><g id="elem_s"><rect fill="#FFFFFF" height="55.7499" rx="3.9063" ry="3.9063" style="stroke:#000000;stroke-width:1.5625;" width="136.2495" x="24.2188" y="114.0625"/><text fill="#000000" font-family="PT Mono" font-size="21.875" lengthAdjust="spacing" textLength="104.9995" x="39.8438" y="149.0468">Selector</text></g><!--entity e--><g id="elem_e"><rect fill="#FFFFFF" height="55.7499" rx="3.9063" ry="3.9063" style="stroke:#000000;stroke-width:1.5625;" width="149.3745" x="17.1875" y="217.1875"/><text fill="#000000" font-family="PT Mono" font-size="21.875" lengthAdjust="spacing" textLength="118.1245" x="32.8125" y="252.1718">Evaluator</text></g><!--entity v--><g id="elem_v"><rect fill="#FFFFFF" height="55.7499" rx="3.9063" ry="3.9063" style="stroke:#000000;stroke-width:1.5625;" width="136.2495" x="24.2188" y="320.3125"/><text fill="#000000" font-family="PT Mono" font-size="21.875" lengthAdjust="spacing" textLength="104.9995" x="39.8438" y="355.2968">Variator</text></g><!--link p to a--><g id="link_p_a"><path d="M173.6719,63.1562 C227.7188,80.2656 300.3125,104.7969 362.5,131.25 C384.5938,140.6563 397.1588,146.5643 417.6745,157.2987 " fill="none" id="p-to-a" style="stroke:#000000;stroke-width:1.5625;"/><polygon fill="#000000" points="428.75,163.0938,419.8476,153.1454,415.5013,161.452,428.75,163.0938" style="stroke:#000000;stroke-width:1.5625;"/><text fill="#000000" font-family="Open Sans" font-size="20.3125" font-weight="bold" lengthAdjust="spacing" textLength="11.6142" x="198.4375" y="65.461">1</text><text fill="#000000" font-family="Open Sans" font-size="20.3125" lengthAdjust="spacing" textLength="5.2765" x="210.0517" y="65.461">&#160;</text><text fill="#000000" font-family="PT Mono" font-size="20.3125" lengthAdjust="spacing" textLength="146.2501" x="215.3282" y="66.6385">.__init__(.)</text></g><!--link s to a--><g id="link_s_a"><path d="M160.4531,151 C222.3438,159.1563 302.8418,169.7869 373.3105,179.0838 " fill="none" id="s-to-a" style="stroke:#000000;stroke-width:1.5625;"/><polygon fill="#000000" points="385.7031,180.7188,373.9236,174.4366,372.6974,183.731,385.7031,180.7188" style="stroke:#000000;stroke-width:1.5625;"/></g><!--link e to a--><g id="link_e_a"><path d="M167.2188,235.6094 C228.8906,227.4687 305.1232,217.418 373.0295,208.4492 " fill="none" id="e-to-a" style="stroke:#000000;stroke-width:1.5625;"/><polygon fill="#000000" points="385.4219,206.8125,372.4157,203.8021,373.6433,213.0964,385.4219,206.8125" style="stroke:#000000;stroke-width:1.5625;"/></g><!--link v to a--><g id="link_v_a"><path d="M160.7031,322.7344 C215.1562,301.75 293.9219,271.1719 362.5,243.75 C378,237.5469 383.0097,235.5633 398.7753,229.1101 " fill="none" id="v-to-a" style="stroke:#000000;stroke-width:1.5625;"/><polygon fill="#000000" points="410.3438,224.375,396.9996,224.772,400.551,233.4483,410.3438,224.375" style="stroke:#000000;stroke-width:1.5625;"/></g><!--link a to a--><g id="link_a_a"><path d="M453.0781,163.1719 C441.1875,139.9531 452.1563,116.4063 485.9375,116.4063 C519.7188,116.4063 536.3852,128.8272 524.4946,152.046 " fill="none" id="a-to-a" style="stroke:#000000;stroke-width:1.5625;"/><polygon fill="#000000" points="518.7969,163.1719,528.6668,154.1826,520.3224,149.9093,518.7969,163.1719" style="stroke:#000000;stroke-width:1.5625;"/><text fill="#000000" font-family="Open Sans" font-size="20.3125" font-weight="bold" lengthAdjust="spacing" textLength="11.6142" x="435.1563" y="102.1797">2</text><text fill="#000000" font-family="Open Sans" font-size="20.3125" lengthAdjust="spacing" textLength="5.2765" x="446.7705" y="102.1797">&#160;</text><text fill="#000000" font-family="PT Mono" font-size="20.3125" lengthAdjust="spacing" textLength="85.3125" x="452.047" y="103.3572">.step()</text></g><!--link a to tp--><g id="link_a_tp"><path d="M586.25,193.75 C645.5781,193.75 712.3281,193.75 776.1875,193.75 " fill="none" id="a-to-tp" style="stroke:#000000;stroke-width:1.5625;"/><polygon fill="#000000" points="785.5625,193.75,771.5,187.5,777.75,193.75,771.5,200,785.5625,193.75" style="stroke:#000000;stroke-width:1.5625;"/><text fill="#000000" font-family="Open Sans" font-size="20.3125" font-weight="bold" lengthAdjust="spacing" textLength="11.6142" x="610.9375" y="187.336">3</text><text fill="#000000" font-family="Open Sans" font-size="20.3125" lengthAdjust="spacing" textLength="5.2765" x="622.5517" y="187.336">&#160;</text><text fill="#000000" font-family="PT Mono" font-size="20.3125" lengthAdjust="spacing" textLength="134.0626" x="627.8282" y="188.5135">.population</text></g><!--SRC=[TL1DJ-Cm4BtxLqojIa2rkBjmMwb8h1Qq5tOh2bohQJ9DBVmbsmagltx791MfW9moypuyxqscHczg7M41Kgav3r9CfjesHxjvwXefJc2nW7kglBNaQgfXYH4jPMBcGl1t0fFfRzfYQ_AjT_alWyLZ-G1ttdafsFcUKl0kqHsbX0tz8kDVhcFqBqpSead4d3-h40bhtbn-v_5fFF8RsbMchKafq0aGyeuiVGDok35yqsO_4BHhG6V50WwWDfW8V4SnwffI4VL2CHdiO2XYphDgElsgGclDH_XWriCbjA5jXkmXwcQNWJbKPUtTMnzSsBzG9ZJlRQMoVYlhaOlWPbB0YkgXkNHeeb3IitQXw3Y4exmF72BcdHTVFSgk8M9Z4GpkVPk1pFDecSc_GeujbTrdqNJbbSN4Lmu1Yp6wnX38bRR1qBLfVDHvPoKWzpycIBdqeJLOBk6Xu66CFr2qkbJn2J67OwSL6Hvz7E1qZDvqQ5fyX-aOViAeHsWdH83pywihm9ymc_sOpPYarcljT5wlJzMPb28D1467d-xm8t0alkZ5t50uBReUvFCBUDc3OHJkFm00]--></g></svg>